<?xml version="1.0" encoding="UTF-8" standalone="no"?>
<!-- Created with Inkscape (http://www.inkscape.org/) -->

<svg
   viewBox="0 0 236.44414 75.207024"
   version="1.1"
   id="svg1014"
   sodipodi:docname="logo_header.svg"
   inkscape:version="1.1.1 (c3084ef, 2021-09-22)"
   xmlns:inkscape="http://www.inkscape.org/namespaces/inkscape"
   xmlns:sodipodi="http://sodipodi.sourceforge.net/DTD/sodipodi-0.dtd"
   xmlns="http://www.w3.org/2000/svg"
   xmlns:svg="http://www.w3.org/2000/svg">
  <sodipodi:namedview
     id="namedview1016"
     pagecolor="#505050"
     bordercolor="#eeeeee"
     borderopacity="1"
     inkscape:pageshadow="0"
     inkscape:pageopacity="0"
     inkscape:pagecheckerboard="0"
     inkscape:document-units="mm"
     showgrid="false"
     inkscape:zoom="0.27403529"
     inkscape:cx="280.98571"
     inkscape:cy="120.42245"
     inkscape:window-width="1280"
     inkscape:window-height="679"
     inkscape:window-x="0"
     inkscape:window-y="25"
     inkscape:window-maximized="0"
     inkscape:current-layer="layer1"
     fit-margin-top="2"
     fit-margin-left="1"
     fit-margin-right="1"
     fit-margin-bottom="1" />
  <defs>
      <filter id="motion-blur">
          <feGaussianBlur in="SourceGraphic" stdDeviation="20 1" />
      </filter>
   </defs>
  <g
     inkscape:label="Ebene 1"
     inkscape:groupmode="layer"
     id="layer1"
     transform="translate(64.459238,43.789531)">
    <g
       aria-label="Rad"
       id="text14806"
       style="font-weight:bold;font-size:50.8px;line-height:1.25;font-family:'Arial Black';-inkscape-font-specification:'Arial Black,  Bold';text-align:end;text-anchor:end;stroke-width:0.264583"
       class="logo_text">
      <path
         d="m 10.399704,25.578348 v -36.363671 h 18.727539 q 5.208984,0 7.962304,0.8929686 2.753321,0.8929687 4.440039,3.323828 1.686719,2.4060547 1.686719,5.87871089 0,3.02617181 -1.289844,5.23378901 -1.289843,2.1828124 -3.54707,3.5470702 -1.438672,0.8681641 -3.943945,1.4386719 2.00918,0.6697264 2.926953,1.3394534 0.620117,0.446484 1.785937,1.909961 1.190625,1.463476 1.5875,2.257226 l 5.432227,10.541992 h -12.7 l -6.002734,-11.1125 q -1.141016,-2.158007 -2.033985,-2.802929 -1.215429,-0.84336 -2.75332,-0.84336 H 21.685837 V 25.578348 Z M 21.685837,3.948661 h 4.737695 q 0.768945,0 2.976562,-0.4960938 1.116211,-0.2232421 1.810743,-1.1410156 0.719335,-0.9177734 0.719335,-2.10839837 0,-1.76113283 -1.11621,-2.70371093 -1.116211,-0.9425781 -4.191993,-0.9425781 h -4.936132 z"
         style="text-align:start;text-anchor:start"
         id="path1051" />
      <path
         d="M 58.272752,7.7685828 48.623728,6.7515906 q 0.545703,-2.5300781 1.562696,-3.9687499 1.041796,-1.4634766 2.976562,-2.5300781 1.389062,-0.7689453 3.819922,-1.19062498 2.430859,-0.42167972 5.258593,-0.42167972 4.539258,0 7.292578,0.52089847 2.753321,0.49609374 4.588868,2.10839843 1.289843,1.1162109 2.033984,3.1749999 0.744141,2.0339844 0.744141,3.8943359 V 19.972489 q 0,1.860351 0.223242,2.926953 0.248047,1.041797 1.041797,2.678906 H 68.69072 q -0.570508,-1.016992 -0.74414,-1.53789 -0.173633,-0.545704 -0.347266,-1.686719 -1.984375,1.909961 -3.943945,2.728515 -2.678907,1.091407 -6.225977,1.091407 -4.71289,0 -7.168554,-2.182813 -2.43086,-2.182812 -2.43086,-5.382617 0,-3.001367 1.761133,-4.936133 1.761133,-1.934765 6.498828,-2.877343 5.680273,-1.141016 7.366992,-1.5875003 1.686719,-0.4712891 3.571875,-1.2154297 0,-1.8603515 -0.768945,-2.6044922 -0.768946,-0.7441406 -2.703711,-0.7441406 -2.480469,0 -3.720703,0.79375 -0.967383,0.6201172 -1.562695,2.3316406 z m 8.756054,5.3082032 q -2.083594,0.74414 -4.34082,1.314648 -3.075781,0.818555 -3.894336,1.612305 -0.843359,0.818555 -0.843359,1.860351 0,1.190625 0.818554,1.959571 0.84336,0.74414 2.455664,0.74414 1.686719,0 3.125391,-0.818554 1.463476,-0.818555 2.058789,-1.984375 0.620117,-1.190625 0.620117,-3.075781 z"
         style="text-align:start;text-anchor:start"
         id="path1053" />
      <path
         d="m 110.73466,-10.785323 v 36.363671 h -9.45058 v -3.894336 q -1.984376,2.480469 -3.621486,3.348633 -2.182812,1.141016 -4.861718,1.141016 -5.382617,0 -8.235156,-4.092774 -2.827735,-4.092773 -2.827735,-9.946679 0,-6.5484377 3.125391,-10.0210939 3.150195,-3.4726562 7.987109,-3.4726562 2.356445,0 4.266406,0.79375003 1.934766,0.79374999 3.423049,2.38124997 V -10.785323 Z m -10.12031,23.117968 q 0,-3.1005857 -1.314646,-4.6136716 -1.314649,-1.5378906 -3.323828,-1.5378906 -1.761133,0 -2.951758,1.4634766 -1.190625,1.4634765 -1.190625,4.9113276 0,3.22461 1.21543,4.737696 1.240234,1.488281 3.050976,1.488281 1.934766,0 3.224609,-1.513086 1.289842,-1.513086 1.289842,-4.936133 z"
         style="text-align:start;text-anchor:start"
         id="path1055" />
    </g>
    <g
       id="g14818"
       class="arrow"
       transform="translate(-95.547382,-102.70301)">
      <g
         id="g14814">
        <path
           style="stroke-width:10.665px;stroke-linecap:round;stroke-linejoin:round;stroke-miterlimit:4;stroke-dasharray:none;stroke-opacity:1"
           d="m 51.5828,91.1009 c 0,0 -14.0766,15.7211 -14.1554,18.2091 -0.0014,0.044 0.1275,0.251 0.3596,0.586 1.9843,4.833 13.4265,17.892 13.4265,17.892"
           id="path14808" />
        <path
           style="stroke-width:10.665px;stroke-linecap:round;stroke-linejoin:round;stroke-miterlimit:4;stroke-dasharray:none;stroke-opacity:1"
           d="m 71.4034,95.0404 c 0,0 -10.4255,9.2826 -10.5831,14.2586 -0.0029,0.089 0.0605,0.259 0.1766,0.494 0.9921,5.945 9.6679,14.301 9.6679,14.301"
           id="path14810" />
        <path
           style="stroke-width:10.665px;stroke-linecap:round;stroke-linejoin:round;stroke-miterlimit:4;stroke-dasharray:none;stroke-opacity:1"
           d="m 91.224,98.9799 c 0,0 -6.7743,2.8441 -7.0109,10.3081 -0.0042,0.133 -0.0063,0.267 -0.0063,0.402 0,7.056 5.9093,10.711 5.9093,10.711"
           id="path14812" />
      </g>
      <circle
         style="opacity:1;stroke-width:1;stroke-linecap:round;stroke-linejoin:round;stroke-miterlimit:4;stroke-dasharray:none;stroke-opacity:1"
         id="circle14816"
         class="arrow"
         cx="106.92049"
         cy="109.13645"
         r="7.9405537" />
    </g>
    <g
       aria-label="Cit"
       id="text14822"
       style="font-weight:bold;font-size:50.8px;line-height:1.25;font-family:'Arial Black';-inkscape-font-specification:'Arial Black,  Bold';text-align:end;text-anchor:end;stroke-width:0.264583"
       class="logo_text">
      <path
         d="m 47.393829,-19.66375 9.84746,2.976563 q -0.992187,4.142382 -3.12539,6.9205073 -2.133203,2.778125 -5.308203,4.1919921 -3.150196,1.4138672 -8.036719,1.4138672 -5.92832,0 -9.698633,-1.7115234 -3.745507,-1.7363281 -6.474023,-6.0771482 -2.728516,-4.34082 -2.728516,-11.1125 0,-9.028906 4.787305,-13.86582 4.812109,-4.861719 13.592969,-4.861719 6.870898,0 10.790039,2.778125 3.943945,2.778125 5.853906,8.532813 l -9.921875,2.207617 q -0.520899,-1.661914 -1.091406,-2.43086 -0.942578,-1.289843 -2.306836,-1.984375 -1.364258,-0.694531 -3.050977,-0.694531 -3.819922,0 -5.853906,3.075781 -1.537891,2.282032 -1.537891,7.168555 0,6.052344 1.835547,8.30957 1.835547,2.232422 5.159375,2.232422 3.22461,0 4.861719,-1.810742 1.661914,-1.810742 2.406055,-5.258594 z"
         style="text-align:start;text-anchor:start"
         id="path1026" />
      <path
         d="m 62.375861,-41.169414 h 10.095508 v 6.870899 H 62.375861 Z m 0,10.021094 H 72.471369 V -4.8057423 H 62.375861 Z"
         style="text-align:start;text-anchor:start"
         id="path1028" />
      <path
         d="m 91.149296,-41.169414 v 10.021094 h 5.55625 v 7.366992 h -5.55625 v 9.351367 q 0,1.686719 0.322461,2.232422 0.496094,0.843359 1.736328,0.843359 1.116211,0 3.125391,-0.644922 l 0.74414,6.9701176 q -3.745508,0.8185546 -6.994922,0.8185546 -3.770312,0 -5.55625,-0.9673828 -1.785937,-0.9673828 -2.654101,-2.9269531 -0.843359,-1.9843753 -0.843359,-6.3996093 v -9.276953 h -3.720703 v -7.366992 h 3.720703 v -4.836914 z"
         style="text-align:start;text-anchor:start"
         id="path1030" />
    </g>
    <g
       id="g14834"
       class="arrow"
       transform="translate(50.540427,-168.85681)">
      <g
         id="g14830"
         transform="matrix(-1,0,0,1,152.53261,41.734073)">
        <path
           style="stroke-width:10.665px;stroke-linecap:round;stroke-linejoin:round;stroke-miterlimit:4;stroke-dasharray:none;stroke-opacity:1"
           d="m 51.5828,91.1009 c 0,0 -14.0766,15.7211 -14.1554,18.2091 -0.0014,0.044 0.1275,0.251 0.3596,0.586 1.9843,4.833 13.4265,17.892 13.4265,17.892"
           id="path14824" />
        <path
           style="stroke-width:10.665px;stroke-linecap:round;stroke-linejoin:round;stroke-miterlimit:4;stroke-dasharray:none;stroke-opacity:1"
           d="m 71.4034,95.0404 c 0,0 -10.4255,9.2826 -10.5831,14.2586 -0.0029,0.089 0.0605,0.259 0.1766,0.494 0.9921,5.945 9.6679,14.301 9.6679,14.301"
           id="path14826" />
        <path
           style="stroke-width:10.665px;stroke-linecap:round;stroke-linejoin:round;stroke-miterlimit:4;stroke-dasharray:none;stroke-opacity:1"
           d="m 91.224,98.9799 c 0,0 -6.7743,2.8441 -7.0109,10.3081 -0.0042,0.133 -0.0063,0.267 -0.0063,0.402 0,7.056 5.9093,10.711 5.9093,10.711"
           id="path14828" />
      </g>
      <circle
         style="opacity:1;stroke-width:1;stroke-linecap:round;stroke-linejoin:round;stroke-miterlimit:4;stroke-dasharray:none;stroke-opacity:1"
         id="circle14832"
         cx="44.873367"
         cy="150.87053"
         r="7.9405537" />
    </g>
  </g>
</svg>
